inDegrees=no
num_controls=7
num_derivatives=13
num_iterations=129
num_multipliers=7
num_parameters=0
num_slacks=7
num_states=26
objective=5.989155
objective_accelerations=0.705285
objective_balance=0.012862
objective_effort=0.507113
objective_height=4.663391
objective_ligament=0.100503
solver_duration=1124.689679
status=Solve_Succeeded
success=true
DataType=double
version=3
OpenSimVersion=4.4-2022-07-23-0e9fedc
endheader
time	/jointset/ground_pelvis/pelvis_tilt/value	/jointset/ground_pelvis/pelvis_tx/value	/jointset/ground_pelvis/pelvis_ty/value	/jointset/hip_r/hip_flexion_r/value	/jointset/hip_r/hip_adduction_r/value	/jointset/hip_r/hip_rotation_r/value	/jointset/back/lumbar_extension/value	/jointset/patellofemoral_r/patellar_flexion_r/value	/jointset/knee_r/knee_flexion_r/value	/jointset/knee_r/knee_adduction_r/value	/jointset/knee_r/knee_rotation_r/value	/jointset/ankle_r/ankle_angle_r/value	/jointset/subtalar_r/subtalar_angle_r/value	/jointset/ground_pelvis/pelvis_tilt/speed	/jointset/ground_pelvis/pelvis_tx/speed	/jointset/ground_pelvis/pelvis_ty/speed	/jointset/hip_r/hip_flexion_r/speed	/jointset/hip_r/hip_adduction_r/speed	/jointset/hip_r/hip_rotation_r/speed	/jointset/back/lumbar_extension/speed	/jointset/patellofemoral_r/patellar_flexion_r/speed	/jointset/knee_r/knee_flexion_r/speed	/jointset/knee_r/knee_adduction_r/speed	/jointset/knee_r/knee_rotation_r/speed	/jointset/ankle_r/ankle_angle_r/speed	/jointset/subtalar_r/subtalar_angle_r/speed	/forceset/tau_hip_flexion_r	/forceset/tau_hip_adduction_r	/forceset/tau_hip_rotation_r	/forceset/tau_knee_flexion_r	/forceset/tau_ankle_angle_r	/forceset/tau_subtalar_angle_r	/forceset/tau_lumbar_extension	lambda_cid13_p0	lambda_cid14_p0	lambda_cid14_p1	lambda_cid14_p2	lambda_cid14_p3	lambda_cid14_p4	lambda_cid14_p5	/jointset/ground_pelvis/pelvis_tilt/accel	/jointset/ground_pelvis/pelvis_tx/accel	/jointset/ground_pelvis/pelvis_ty/accel	/jointset/hip_r/hip_flexion_r/accel	/jointset/hip_r/hip_adduction_r/accel	/jointset/hip_r/hip_rotation_r/accel	/jointset/back/lumbar_extension/accel	/jointset/patellofemoral_r/patellar_flexion_r/accel	/jointset/knee_r/knee_flexion_r/accel	/jointset/knee_r/knee_adduction_r/accel	/jointset/knee_r/knee_rotation_r/accel	/jointset/ankle_r/ankle_angle_r/accel	/jointset/subtalar_r/subtalar_angle_r/accel	gamma_cid13_p0	gamma_cid14_p0	gamma_cid14_p1	gamma_cid14_p2	gamma_cid14_p3	gamma_cid14_p4	gamma_cid14_p5
1	-0.2775481015490029	-0.01820460343647128	0.6020425265600371	1.548816163510307	-0.2482708440804255	0.1441588301390073	-0.7853892240591611	1.603686465009894	1.603686465009876	0.0490873392806395	0.1745095840037928	0.4362051342322247	0.1512080257067822	0.07187120680586995	0.005452793723006044	0.01459446949696409	-0.1004384021976768	-0.002383496232399064	-0.004423772258205756	0.000218834690418596	-0.01236336637106748	-0.01236336637107843	0.001564620985566155	0.0001044339446020375	0.01619817854374455	0.003289018046608695	-0.3645058526682636	0.005203160766106611	0.05300328408689626	-0.4822271201666204	-0.02210801491031486	-0.01454178750808628	0.3758155593286732	-0.03885957081335337	-60.69036845057086	-19.04923150680785	5.865933355358332	8.957660545088567	-779.4211269393534	80.53296122524428	1.345513198934783	0.1339191379459807	1.988744847954992	-5.89361246831952	-0.2164495535912145	-1.798383497838032	-0.02095974893368945	-5.289460619767599	-5.289460619768261	0.1234982846778214	0.01598959525672194	-1.004184889067941	-0.8382469184510878	7.29225684144949e-10	-3.650073001421604e-10	-5.40024006362825e-09	3.489777964071741e-09	5.814737947640239e-10	-5.819344255985808e-09	-9.290802703327898e-09
1.01	-0.2767624880738104	-0.01814336542437971	0.6022878199990669	1.547517596244271	-0.2483052705128477	0.1440248693768871	-0.7853876741006782	1.603298477420243	1.603298477420254	0.04910900667275264	0.1745109011549325	0.4363169515972934	0.1511994436709276	0.08527971095754432	0.006799811550024148	0.03446757237383892	-0.1593115532722353	-0.004497333783773857	-0.02236310792604375	5.705473566631287e-05	-0.06524148940879144	-0.06524148940878891	0.002770279152287237	0.0001527799779665264	0.006166583853283313	-0.004996442712182057	-0.3639191255604778	0.005178730968846169	0.05303159046187473	-0.4825869148946878	-0.02166221634583234	-0.01455351223281435	0.3755016401946826	-0.03886523098295381	-60.53904032257513	-19.03448826088438	5.871191477431491	8.840763826496168	-779.3049644289117	80.58416203780602	1.342752269745343	0.1358437448063953	1.987094221977659	-5.889642125649213	-0.2081815101114326	-1.790918656842446	-0.01890246492496063	-5.288088859900354	-5.288088859898788	0.1193137421090553	-0.001675267890847378	-1.002453555537824	-0.8223479663276663	1.873499455924584e-10	-1.319396365181207e-09	4.45606259427957e-10	1.67781693542714e-09	1.059828707675251e-09	-9.438856781871252e-09	-8.181510160282773e-09
1.02	-0.2758419429076098	-0.01806850710607307	0.602731944709749	1.545629202327956	-0.2483607014515654	0.1437116732467935	-0.7853887650084004	1.602381488457391	1.602381488457316	0.04914277347831816	0.1745125152910882	0.4363284916568834	0.1511082765651452	0.09885754496745708	0.008176854966020752	0.05436072382748974	-0.2184037322919574	-0.00658439750318463	-0.04027084581734947	-0.0003093390663602788	-0.1181636410114966	-0.1181636410114793	0.003984503696575866	0.0001638310007071388	-0.003857282697246279	-0.01322799594039314	-0.3633323984524103	0.005154301171406703	0.05305989683760376	-0.4829467096226892	-0.02121641778144216	-0.01456523695793453	0.3751877210609851	-0.03887491715240594	-60.39381307850954	-19.01918590808966	5.874501784526568	8.731572478103331	-779.3100814682957	80.62162181247294	1.379379170583014	0.139924255741178	1.992754563310111	-5.937418057351862	-0.2110947871981275	-1.792063942531355	-0.06188251837676598	-5.298266332763928	-5.298266332764336	0.1252115601912449	0.008530593131459655	-1.002639261082552	-0.8274654123350643	-2.367889688156137e-10	-3.111845038886684e-09	6.782694504576894e-09	-1.292107464623427e-10	3.613495458970622e-09	-1.332027987291572e-08	-5.680629840214567e-09
1.03	-0.2747855000183588	-0.01797965364879408	0.6033750358388453	1.543149477172451	-0.2484368137331811	0.1432195902211717	-0.7853927473921929	1.600934912140523	1.600934912140664	0.04918871840964296	0.1745139970100128	0.4362397280321156	0.1509351430545405	0.11238713571345	0.009606461450876362	0.07425451497417775	-0.27751039023725	-0.008628622101134799	-0.05813650136117422	-0.0003421933930417716	-0.1711738722437146	-0.1711738722436985	0.005206855417272493	0.00012182403587101	-0.01390448926802661	-0.02138287562605642	-0.3635998013417233	0.005266683298587478	0.05306851380489072	-0.4829131917794398	-0.02134085790798999	-0.01454428769223421	0.3758246807505045	-0.03889823907548399	-60.45432637490857	-19.01786616694693	5.87107372987338	8.615525991899014	-779.8068390575272	80.58838360658802	1.333164383617206	0.1463738425724414	1.98723987323424	-5.892653860465776	-0.1996700942931032	-1.782430800464542	0.04775474296807654	-5.305738865412473	-5.305738865412472	0.1211060306849856	-0.01216971704250583	-1.007119608264244	-0.8071226853635233	-6.597264870589463e-10	-4.912845341252029e-09	1.312479542240025e-08	-1.936188088078814e-09	6.188338861678088e-09	-1.720437552074751e-08	-3.165549644870606e-09
1.04	-0.27359507815009	-0.01787612512712259	0.6042169745759852	1.540079612598547	-0.2485330850203167	0.1425491277518811	-0.7853927099960286	1.598957566041941	1.598957566041947	0.04924695866885608	0.174514737984008	0.4360502206906248	0.1506809360593516	0.1256533407397382	0.01111186784452053	0.09413024543627087	-0.3364316160764809	-0.01061619862707162	-0.07594673451128525	0.0004946175911339084	-0.2243175973543708	-0.2243175973543542	0.006443569244979638	1.568204104252453e-05	-0.02400602596632416	-0.02944269285902347	-0.3638672042290446	0.005379065425703035	0.05307713077231632	-0.4828796739361529	-0.0214652980349148	-0.01452333842683294	0.3764616404419144	-0.03892544923671429	-60.52112407115282	-19.01606498643837	5.865762242740685	8.506515912175486	-780.4275199668825	80.54170754886999	1.326702026642128	0.1550842374989899	1.989142426391109	-5.90033163613983	-0.1997651727951132	-1.780979463788257	0.1120505437725484	-5.324965108451303	-5.324965108451321	0.1280839815931237	-0.004296412867904321	-1.013505286585578	-0.8084529217949844	-1.974634891421544e-09	-5.482348032645389e-09	1.781468174707527e-08	-5.542374894358395e-09	5.470565712444957e-09	-1.960189319984719e-08	-8.112239158722791e-09
1.05	-0.2722733084867273	-0.01775707432250019	0.6052574569586934	1.536421653421502	-0.248648910056818	0.1417009533860609	-0.7853793316359424	1.596448405060007	1.596448405059973	0.04931759059481575	0.1745140903510523	0.4357595498048897	0.150346758991105	0.1386547802032236	0.01271990127592749	0.1139507553306144	-0.3951083058864131	-0.01253619846820121	-0.09366627134266096	0.00239129317817654	-0.2775081947027465	-0.2775081947027259	0.007683002203002899	-0.0001550875584085509	-0.03412524718595112	-0.0373632547034502	-0.3643639954166693	0.005495840650505208	0.05305585333418476	-0.4822281404581189	-0.02187452269418057	-0.01443963556525098	0.37739231054091	-0.03895743133482723	-60.65183323212911	-18.98309751900619	5.838230820511057	8.324579859264571	-780.8244886226727	80.45147109084502	1.279992810490616	0.1669050465885546	1.976179490176897	-5.843551455337489	-0.186225535643923	-1.764166961608634	0.2600118642459633	-5.31514572083876	-5.315145720837601	0.1219069553404152	-0.02495057748080623	-1.01069660085692	-0.7794353206704808	-3.317417385975364e-09	-6.013366423695882e-09	2.245293636571442e-08	-9.20478699640869e-09	4.649898295963703e-09	-2.1952955317424e-08	-1.329210897598731e-08
1.06	-0.2708228988478747	-0.01762129475343608	0.6064956792841872	1.532178484585938	-0.2487835567208688	0.140676238417984	-0.7853406793596761	1.593407530370027	1.593407530370015	0.04940062365111597	0.1745114383534717	0.4353677734946728	0.1499342608034458	0.1513813358382439	0.01445762073286258	0.1336782339934546	-0.4534735477730393	-0.01438052414421443	-0.1112548549259196	0.005549400688187086	-0.330660338963464	-0.3306603389634354	0.008923795258335877	-0.0003851909176792347	-0.04422711085382493	-0.04510691674409666	-0.3648607866045369	0.005612615875152987	0.05303457589553322	-0.4815766069801496	-0.02228374735347115	-0.01435593270395655	0.3783229806396634	-0.03899323515389898	-60.78911529371756	-18.94979379319319	5.80894723661166	8.148933513749686	-781.3486872646777	80.34856054086212	1.271725260949603	0.181021442604455	1.970536180090348	-5.838042051478652	-0.184630339771753	-1.754788814164785	0.3643369283646737	-5.31727449091941	-5.317274490918624	0.1283560010549838	-0.01616316483188768	-1.010033776235139	-0.7730729610389168	-4.683805661967107e-09	-5.717135424534591e-09	2.867107282561744e-08	-1.42173869867374e-08	1.961542277245457e-09	-2.383982304115287e-08	-1.49499274530506e-08
1.07	-0.269246677467126	-0.01746749423587862	0.6079305734769777	1.527353619641392	-0.2489362583529887	0.1394763221480068	-0.7852642156493895	1.589835525792036	1.589835525791908	0.04949602218297003	0.174506294321529	0.4348749525169741	0.1494451967871278	0.163805392269303	0.01632354653251153	0.1532709396236526	-0.5114037547850112	-0.01614571978031963	-0.1287004002171601	0.009950551911024204	-0.3837141290107274	-0.3837141290107079	0.01015395053530261	-0.0006445674218083332	-0.05434554051731929	-0.05267703965428985	-0.3647710254441022	0.005663701890965708	0.05299751002436042	-0.4805818951270716	-0.0225029351393374	-0.01424084437411292	0.3787568847884252	-0.03904118457300943	-60.81798727440383	-18.87472546989378	5.76255125711322	7.941736939271541	-781.2177743211031	80.23997826787767	1.219112947022124	0.1925375068244636	1.949182846366495	-5.756158240612065	-0.170352694175272	-1.735247008319914	0.5090857997939974	-5.295462887605782	-5.295462887607138	0.1200602277987025	-0.03097086495638932	-1.014017823479137	-0.744651600201755	-6.051449564631081e-09	-5.37690179823437e-09	3.497324555367281e-08	-1.930180548176177e-08	-8.261588798896631e-10	-2.570199957371961e-08	-1.642040277372017e-08
